<?xml version="1.0" standalone="no"?>
<!DOCTYPE svg PUBLIC "-//W3C//DTD SVG 20010904//EN"
 "http://www.w3.org/TR/2001/REC-SVG-20010904/DTD/svg10.dtd">
<svg version="1.0" xmlns="http://www.w3.org/2000/svg"
 width="742.000000pt" height="150.000000pt" viewBox="0 0 742.000000 150.000000"
 preserveAspectRatio="xMidYMid meet">
<metadata>
Created by potrace 1.16, written by Peter Selinger 2001-2019
</metadata>
<g transform="translate(0.000000,150.000000) scale(0.100000,-0.100000)"
fill="#000000" stroke="none">
<path d="M118 1463 c-3 -21 -1 -119 4 -218 5 -99 10 -306 12 -461 2 -158 8
-289 14 -300 24 -47 55 -175 57 -234 1 -36 7 -84 14 -108 7 -24 11 -56 9 -70
-2 -22 2 -28 20 -30 17 -3 21 -8 17 -23 -6 -19 45 -19 3574 -19 l3581 0 0 750
0 750 -2770 0 -2770 0 -1 -307 c-1 -170 0 -410 1 -535 1 -204 0 -227 -14 -222
-9 3 -16 11 -16 17 0 6 -2 8 -5 5 -3 -3 4 -25 15 -49 14 -31 20 -66 20 -117 0
-74 -12 -89 -25 -32 -4 17 -11 30 -16 30 -5 0 -9 49 -9 109 0 82 -3 111 -14
120 -8 7 -17 24 -20 39 -8 42 -21 567 -19 765 l1 177 -127 0 -128 0 -7 -46
c-3 -26 -6 -72 -6 -103 0 -77 -8 -105 -26 -90 -14 11 -13 60 1 197 l5 42 -119
0 -118 0 -6 -61 c-7 -85 -23 -99 -107 -99 -43 0 -73 -5 -86 -15 -10 -8 -23
-15 -27 -15 -5 0 -7 43 -5 95 l3 95 -32 0 -33 0 0 -72 c-1 -104 -12 -140 -63
-200 -71 -84 -99 -155 -112 -281 -4 -50 -2 -66 20 -109 14 -27 25 -56 25 -64
0 -8 4 -14 9 -14 4 0 16 37 25 83 9 45 25 94 36 109 11 15 20 30 20 34 0 4 10
17 23 29 12 12 35 39 52 59 16 20 39 36 50 36 11 0 29 6 40 13 11 7 40 19 65
26 25 7 58 16 74 21 21 7 32 5 43 -5 7 -8 45 -24 83 -35 64 -19 72 -24 92 -63
11 -23 23 -54 24 -70 2 -15 10 -40 18 -55 7 -15 17 -57 21 -94 6 -66 19 -87
28 -50 3 9 5 -25 4 -76 0 -51 -4 -95 -8 -98 -5 -3 -9 -22 -9 -42 -1 -20 -7
-54 -14 -74 -18 -50 -87 -140 -103 -134 -7 3 -13 1 -13 -4 0 -5 -6 -7 -14 -4
-8 3 -18 -7 -27 -28 -18 -46 -32 -58 -52 -46 -11 6 -17 5 -17 -2 0 -5 -7 -10
-15 -10 -8 0 -15 6 -15 14 0 8 -6 16 -12 19 -7 2 4 12 25 21 45 22 52 51 10
39 -48 -14 -126 -6 -140 13 -20 28 -15 35 20 29 17 -4 43 -1 57 5 23 10 24 10
2 6 -29 -6 -95 21 -87 35 4 5 16 7 28 3 12 -4 51 -7 87 -7 36 1 55 -1 43 -4
-36 -7 -27 -23 11 -18 26 4 40 -1 60 -20 14 -13 27 -21 27 -17 1 4 2 12 3 17
1 6 5 21 10 34 7 19 4 28 -15 42 -13 10 -35 19 -49 19 -14 0 -38 7 -53 15 -22
11 -33 12 -52 3 -20 -9 -37 -7 -82 8 -43 14 -57 16 -60 7 -3 -7 -19 -13 -36
-13 l-32 0 38 35 c36 33 47 55 28 55 -11 0 -67 -55 -99 -98 -16 -21 -21 -38
-17 -55 10 -39 -8 -39 -34 -1 -13 19 -30 34 -38 34 -8 0 -11 5 -7 12 4 6 -1
17 -10 23 -11 9 -21 43 -31 106 l-14 94 5 -80 c3 -44 10 -102 15 -130 5 -27 7
-74 3 -103 -6 -51 -9 -54 -50 -75 -36 -17 -47 -19 -69 -9 -27 12 -28 20 -25
142 0 30 -4 149 -10 264 -8 154 -14 214 -25 229 -8 12 -15 40 -15 62 0 47 -7
60 -36 69 -16 5 -24 2 -29 -11 -18 -45 -36 -291 -34 -473 3 -272 3 -269 -18
-307 -10 -19 -55 -61 -107 -99 l-89 -66 6 64 c8 83 51 460 82 723 26 223 55
505 55 543 0 20 -5 22 -58 22 l-57 0 -3 -222 c-2 -223 -14 -374 -31 -391 -4
-4 -11 10 -15 34 -4 24 -11 48 -15 54 -5 5 -11 24 -14 40 -3 17 -12 48 -21 70
-12 31 -15 83 -16 228 l0 187 -69 0 -69 0 -4 -37z m3092 -325 l0 -198 -35 0
-35 0 0 198 0 197 35 0 35 0 0 -197z m1738 0 l2 -198 -30 0 c-18 0 -33 6 -37
15 -5 14 -8 14 -29 0 -13 -8 -41 -15 -63 -15 -31 0 -44 6 -64 30 -88 104 -1
286 115 242 l28 -10 0 62 c0 35 3 66 7 70 4 4 21 6 38 4 l30 -3 3 -197z m1472
0 l0 -198 -30 0 c-20 0 -30 5 -30 15 0 19 -9 19 -34 0 -23 -17 -79 -20 -107
-5 -52 28 -67 150 -26 211 37 55 82 69 140 44 15 -6 17 0 17 61 l0 69 35 0 35
0 0 -197z m-3380 176 c43 -17 48 -29 26 -59 -12 -17 -17 -18 -40 -7 -53 24
-106 12 -106 -23 0 -28 11 -36 75 -60 66 -25 95 -55 95 -100 0 -79 -51 -125
-137 -125 -47 0 -114 25 -120 45 -1 6 4 19 12 30 14 17 18 18 48 6 63 -26 94
-26 112 2 24 37 7 59 -57 80 -64 20 -94 49 -103 97 -11 65 52 129 127 130 15
0 46 -7 68 -16z m2307 -9 c20 -13 21 -18 11 -40 -13 -29 -11 -29 -62 -11 -42
14 -69 12 -86 -10 -23 -27 -1 -52 70 -79 58 -22 71 -32 85 -62 22 -46 8 -100
-36 -137 -25 -21 -41 -26 -84 -26 -93 0 -153 44 -110 80 13 11 22 10 51 -3 60
-29 114 -16 114 27 0 30 -12 40 -83 66 -68 25 -87 49 -87 108 0 36 5 49 30 72
17 16 41 31 53 33 36 8 109 -2 134 -18z m173 -55 c0 -39 1 -40 35 -40 31 0 35
-3 35 -25 0 -22 -4 -25 -35 -25 l-36 0 3 -82 c3 -79 4 -83 25 -81 28 3 53 -35
32 -48 -17 -11 -90 -11 -105 -1 -24 16 -34 54 -34 130 0 72 -2 80 -21 85 -27
7 -21 41 8 45 16 2 23 12 28 43 6 35 10 39 36 39 27 0 29 -2 29 -40z m-2047
-52 c32 -17 57 -70 57 -121 0 -96 -51 -143 -147 -135 -63 5 -98 32 -114 89
-31 103 48 198 151 183 19 -3 43 -10 53 -16z m843 -12 l34 -34 0 -106 0 -106
-25 0 c-14 0 -28 7 -32 15 -5 14 -8 14 -29 0 -31 -20 -102 -19 -126 2 -25 23
-24 77 4 103 12 11 48 25 80 32 61 13 65 17 48 49 -12 22 -30 24 -76 7 -26 -9
-36 -9 -48 1 -25 21 -19 30 27 51 65 30 103 26 143 -14z m283 19 c39 -20 51
-61 51 -171 l0 -94 -40 0 -39 0 -3 101 c-3 115 -14 133 -62 111 -25 -11 -26
-14 -26 -112 l0 -100 -40 0 -40 0 0 135 0 135 34 0 c19 0 36 -5 38 -11 2 -6
14 -5 33 5 37 20 58 20 94 1z m1219 -11 c28 -18 44 -58 40 -98 l-3 -29 -82 2
c-44 1 -83 -1 -86 -6 -9 -16 13 -53 38 -65 19 -9 34 -8 65 2 35 12 43 11 56
-2 14 -14 13 -18 -13 -38 -24 -19 -37 -21 -92 -18 -56 4 -67 8 -92 36 -51 57
-51 149 1 201 17 16 40 32 53 34 33 7 89 -2 115 -19z m275 -14 c26 -29 27 -35
27 -135 l0 -105 -25 0 c-14 0 -28 7 -31 15 -5 13 -8 13 -27 0 -32 -22 -103
-19 -128 6 -49 49 1 119 96 133 34 6 45 12 45 25 0 26 -26 44 -52 38 -76 -19
-76 -19 -88 2 -10 20 -7 23 32 42 60 27 114 20 151 -21z m-2454 -7 c5 -21 16
-63 24 -93 l14 -55 28 93 c28 92 28 92 61 92 32 0 34 -2 49 -57 24 -85 36
-123 40 -123 1 0 13 41 25 90 l22 90 34 0 c19 0 34 -3 34 -7 0 -4 -18 -65 -40
-135 l-41 -128 -34 0 -34 0 -28 93 -29 92 -29 -93 -28 -93 -35 3 -35 3 -33
105 c-52 165 -52 160 -10 160 32 0 36 -3 45 -37z m2927 -48 l32 -80 15 35 c7
19 22 56 31 83 16 44 20 47 53 47 41 0 45 17 -46 -195 l-68 -160 -36 -3 -36
-3 25 56 26 57 -51 116 c-28 64 -51 121 -51 125 0 5 17 7 37 5 36 -3 38 -5 69
-83z m-2628 -562 l3 -71 27 14 c37 19 65 18 95 -6 34 -27 47 -76 47 -177 l0
-83 -40 0 -39 0 -3 101 c-3 115 -14 133 -62 111 -25 -11 -26 -14 -26 -112 l0
-100 -40 0 -40 0 0 193 c0 107 3 197 7 201 4 4 21 6 38 4 l30 -3 3 -72z
m-1539 -56 c17 -62 31 -119 31 -127 0 -32 20 11 56 122 39 119 49 133 90 118
15 -6 29 -38 59 -135 l39 -128 36 129 35 129 44 3 c33 3 42 0 39 -10 -3 -7
-30 -93 -59 -190 l-54 -178 -37 0 -37 0 -43 136 -43 136 -43 -136 -42 -136
-38 0 -37 0 -57 187 c-34 110 -54 190 -48 193 5 3 25 4 44 2 l34 -4 31 -111z
m2385 99 c23 -14 24 -19 14 -42 -9 -20 -16 -24 -32 -18 -12 3 -40 9 -63 11
-34 4 -43 1 -52 -15 -14 -26 -5 -49 22 -58 118 -35 160 -82 138 -155 -18 -58
-61 -89 -126 -89 -68 0 -127 26 -123 54 5 33 33 43 67 23 51 -30 111 -16 111
27 0 30 -12 40 -83 66 -67 25 -87 50 -87 105 1 72 60 119 142 112 26 -2 58
-11 72 -21z m628 14 c148 -42 185 -253 60 -348 -40 -30 -136 -42 -194 -23 -51
17 -98 71 -114 131 -41 158 90 284 248 240z m551 -23 c62 -41 51 -146 -20
-186 -17 -9 -17 -11 3 -33 11 -13 37 -49 57 -81 l37 -57 -45 0 c-45 0 -46 0
-90 69 -69 106 -95 107 -95 0 l0 -69 -40 0 -40 0 0 189 c0 115 4 191 10 193 5
2 52 1 103 -2 65 -4 101 -10 120 -23z m-843 -7 l0 -30 -86 0 -85 0 3 -47 3
-48 63 -3 c61 -3 62 -3 62 -32 l0 -30 -65 0 -65 0 0 -50 0 -50 85 0 85 0 0
-30 0 -30 -125 0 -125 0 0 190 0 190 125 0 125 0 0 -30z m-1370 -35 c0 -45 0
-45 35 -45 31 0 35 -3 35 -25 0 -22 -4 -25 -35 -25 l-35 0 0 -73 c0 -75 11
-100 38 -90 21 9 45 -26 31 -44 -18 -21 -95 -17 -119 7 -17 17 -20 33 -20 110
0 83 -1 90 -20 90 -15 0 -20 7 -20 25 0 18 5 25 20 25 21 0 24 4 34 52 5 23
17 32 49 37 4 0 7 -19 7 -44z m-538 -63 c31 -29 31 -30 36 -140 l5 -112 -41 0
-41 0 -3 101 c-3 115 -14 133 -62 111 -25 -11 -26 -14 -26 -112 l0 -100 -40 0
-40 0 0 135 0 135 28 0 c15 0 33 -5 38 -10 7 -7 20 -6 40 5 43 22 70 19 106
-13z m259 5 c31 -22 6 -42 -52 -42 -70 0 -75 -19 -12 -46 64 -28 83 -47 83
-80 0 -41 -9 -58 -41 -74 -36 -19 -119 -19 -145 -1 -15 12 -17 18 -8 33 7 10
20 16 30 14 11 -2 35 -4 54 -5 29 -1 35 3 35 19 0 14 -11 23 -40 33 -96 30
-114 121 -32 158 35 16 98 11 128 -9z m864 9 c40 -17 67 -64 63 -109 l-3 -32
-87 -3 c-51 -2 -88 -7 -88 -13 0 -16 48 -59 66 -59 10 0 33 5 51 12 28 10 36
10 49 -4 14 -14 13 -17 -12 -37 -20 -16 -41 -21 -85 -21 -53 0 -63 3 -96 34
-33 30 -37 39 -40 92 -5 70 19 117 70 139 41 18 69 18 112 1z m1914 -20 c24
-25 26 -34 29 -136 l4 -110 -26 0 c-15 0 -29 7 -32 15 -5 13 -9 13 -34 0 -38
-20 -99 -19 -122 2 -24 22 -24 77 1 102 11 11 47 25 80 32 63 12 71 21 47 54
-13 18 -18 19 -61 7 -36 -9 -51 -10 -61 -1 -22 18 -17 29 29 50 55 26 111 20
146 -15z m266 20 c37 -16 44 -36 21 -55 -11 -9 -20 -9 -35 -2 -61 33 -107 -7
-98 -86 6 -53 29 -77 65 -69 12 3 33 9 47 12 36 9 46 -23 16 -48 -37 -29 -121
-25 -160 8 -76 64 -57 200 33 240 40 17 69 17 111 0z m250 0 c38 -16 65 -60
65 -104 0 -37 -12 -42 -105 -42 -69 0 -73 -1 -68 -21 3 -11 16 -27 29 -36 21
-13 31 -14 70 -3 38 11 48 11 60 -2 26 -25 -16 -51 -91 -56 -60 -4 -64 -3
-101 30 -34 32 -38 41 -41 94 -5 70 19 117 70 139 41 18 69 18 112 1z m-3825
-131 l0 -135 -35 0 -35 0 0 135 0 135 35 0 35 0 0 -135z m-1493 -87 c28 -56
-20 -129 -86 -133 -14 -1 -35 -5 -46 -9 -17 -7 -17 -6 -5 4 12 9 7 10 -25 4
-60 -11 -106 -8 -145 9 l-35 16 42 -6 c23 -3 64 -2 90 2 42 6 55 15 113 75 36
37 70 67 75 66 6 -1 16 -14 22 -28z"/>
<path d="M6262 1147 c-17 -20 -25 -65 -18 -103 9 -46 44 -64 81 -40 22 15 25
23 25 80 0 49 -4 65 -16 70 -26 10 -61 7 -72 -7z"/>
<path d="M3357 1142 c-11 -12 -17 -36 -17 -70 0 -44 4 -54 25 -68 51 -33 95 3
95 79 0 67 -64 103 -103 59z"/>
<path d="M5279 532 c-27 -24 -33 -37 -37 -84 -5 -70 16 -114 64 -134 103 -43
193 63 148 175 -29 74 -116 95 -175 43z"/>
<path d="M902 848 c-13 -13 -16 -48 -4 -48 4 0 25 5 47 10 44 10 108 3 99 -11
-3 -5 -30 -9 -60 -9 -38 0 -56 -4 -60 -14 -8 -22 35 -59 75 -63 37 -4 37 2 0
21 -23 12 -28 28 -10 34 6 2 11 -3 11 -12 0 -21 34 -21 55 0 9 9 18 14 21 11
3 -3 -4 -15 -15 -26 -12 -12 -16 -21 -10 -21 16 0 59 36 52 44 -3 3 -1 6 6 6
8 0 10 -7 6 -20 -4 -12 -2 -20 5 -20 9 0 11 15 7 51 -3 28 -7 52 -9 53 -2 1
-24 7 -51 14 -61 15 -150 15 -165 0z"/>
</g>
</svg>
